<svg width="80" height="16" viewBox="0 0 80 16" fill="none" xmlns="http://www.w3.org/2000/svg">
<g clip-path="url(#clip0_22_2)">
<path d="M16.0193 7.75L14.1675 1.20454H15.6622L16.7335 5.75249H16.7872L17.9691 1.20454H19.2489L20.4277 5.76207H20.4846L21.5558 1.20454H23.0505L21.1987 7.75H19.8652L18.6327 3.47052H18.5822L17.3529 7.75H16.0193ZM25.1039 4.91193V7.75H23.7576V1.20454H25.0659V3.70703H25.1228C25.2324 3.41726 25.4093 3.19034 25.6537 3.02627C25.8981 2.86008 26.2046 2.77699 26.5733 2.77699C26.9103 2.77699 27.2043 2.85156 27.455 3.00071C27.7078 3.14773 27.9037 3.35973 28.0427 3.63671C28.1839 3.91157 28.2534 4.24076 28.2513 4.62429V7.75H26.9051V4.86719C26.9072 4.56463 26.8314 4.32919 26.6776 4.16087C26.5259 3.99254 26.3131 3.90838 26.0392 3.90838C25.856 3.90838 25.6937 3.9478 25.5526 4.02663C25.4136 4.10546 25.304 4.22052 25.2239 4.3718C25.146 4.52095 25.1059 4.70099 25.1039 4.91193ZM31.5229 7.84588C31.0236 7.84588 30.5937 7.74361 30.2335 7.53906C29.8754 7.33238 29.5994 7.04048 29.4055 6.66335C29.2117 6.28409 29.1148 5.83558 29.1148 5.31782C29.1148 4.81286 29.2117 4.36967 29.4055 3.98828C29.5994 3.60689 29.8722 3.30966 30.224 3.09659C30.5779 2.88352 30.993 2.77699 31.4691 2.77699C31.7893 2.77699 32.0874 2.82919 32.3634 2.93359C32.6415 3.03587 32.8838 3.19034 33.0902 3.39701C33.2988 3.60369 33.461 3.86363 33.5769 4.17685C33.6928 4.48793 33.7507 4.85227 33.7507 5.26988V5.64382H29.652V4.80007H32.4835C32.4835 4.60405 32.4414 4.43039 32.3571 4.27912C32.2728 4.12784 32.1559 4.00958 32.0063 3.92436C31.8589 3.837 31.6872 3.79332 31.4912 3.79332C31.2869 3.79332 31.1057 3.84126 30.9477 3.93714C30.7918 4.03089 30.6696 4.15767 30.5811 4.31747C30.4927 4.47514 30.4473 4.65092 30.4452 4.84481V5.64701C30.4452 5.88992 30.4895 6.09979 30.5779 6.27663C30.6686 6.45348 30.796 6.58984 30.9603 6.68573C31.1246 6.78161 31.3195 6.82955 31.545 6.82955C31.6945 6.82955 31.8315 6.80824 31.9558 6.76562C32.0801 6.72301 32.1864 6.65909 32.275 6.57386C32.3634 6.48863 32.4308 6.38423 32.4772 6.26065L33.7223 6.34375C33.659 6.64631 33.5295 6.91051 33.3336 7.13636C33.1398 7.36008 32.8891 7.5348 32.5814 7.66051C32.276 7.78409 31.9231 7.84588 31.5229 7.84588ZM34.6292 7.75V2.84091H35.9343V3.69744H35.9849C36.0734 3.39275 36.2219 3.16264 36.4305 3.0071C36.639 2.84943 36.8792 2.7706 37.151 2.7706C37.2184 2.7706 37.2911 2.77486 37.369 2.78338C37.447 2.7919 37.5154 2.80362 37.5745 2.81854V4.02663C37.5112 4.00745 37.4238 3.99041 37.3122 3.9755C37.2005 3.96058 37.0983 3.95312 37.0056 3.95312C36.8076 3.95312 36.6306 3.9968 36.4747 4.08416C36.3209 4.16939 36.1988 4.2887 36.1081 4.44212C36.0197 4.59552 35.9754 4.77237 35.9754 4.97266V7.75H34.6292ZM40.2566 7.84588C39.7573 7.84588 39.3275 7.74361 38.9673 7.53906C38.6091 7.33238 38.3332 7.04048 38.1393 6.66335C37.9455 6.28409 37.8485 5.83558 37.8485 5.31782C37.8485 4.81286 37.9455 4.36967 38.1393 3.98828C38.3332 3.60689 38.606 3.30966 38.9578 3.09659C39.3117 2.88352 39.7267 2.77699 40.2029 2.77699C40.5231 2.77699 40.8212 2.82919 41.0972 2.93359C41.3752 3.03587 41.6175 3.19034 41.824 3.39701C42.0326 3.60369 42.1948 3.86363 42.3107 4.17685C42.4265 4.48793 42.4845 4.85227 42.4845 5.26988V5.64382H38.3858V4.80007H41.2173C41.2173 4.60405 41.1751 4.43039 41.0908 4.27912C41.0066 4.12784 40.8897 4.00958 40.7401 3.92436C40.5926 3.837 40.4209 3.79332 40.225 3.79332C40.0206 3.79332 39.8394 3.84126 39.6814 3.93714C39.5255 4.03089 39.4033 4.15767 39.3149 4.31747C39.2264 4.47514 39.1811 4.65092 39.179 4.84481V5.64701C39.179 5.88992 39.2232 6.09979 39.3117 6.27663C39.4023 6.45348 39.5298 6.58984 39.6941 6.68573C39.8584 6.78161 40.0533 6.82955 40.2787 6.82955C40.4283 6.82955 40.5652 6.80824 40.6895 6.76562C40.8138 6.72301 40.9202 6.65909 41.0087 6.57386C41.0972 6.48863 41.1646 6.38423 41.2109 6.26065L42.456 6.34375C42.3928 6.64631 42.2633 6.91051 42.0674 7.13636C41.8735 7.36008 41.6228 7.5348 41.3153 7.66051C41.0097 7.78409 40.6569 7.84588 40.2566 7.84588ZM48.9587 3.087C48.9334 2.82919 48.8249 2.6289 48.6332 2.48615C48.4415 2.34339 48.1813 2.27201 47.8527 2.27201C47.6294 2.27201 47.4409 2.30398 47.2871 2.36789C47.1333 2.42969 47.0153 2.51598 46.9331 2.62677C46.853 2.73757 46.813 2.86328 46.813 3.00391C46.8088 3.1211 46.8331 3.22337 46.8857 3.31073C46.9405 3.39808 47.0153 3.47372 47.11 3.53764C47.2049 3.59943 47.3144 3.65376 47.4387 3.70064C47.563 3.74538 47.6957 3.78374 47.8369 3.81569L48.4183 3.95632C48.7007 4.02024 48.9598 4.10546 49.1957 4.212C49.4317 4.31854 49.6361 4.44957 49.8088 4.60511C49.9816 4.76065 50.1154 4.94389 50.2101 5.15483C50.307 5.36576 50.3566 5.6076 50.3587 5.88032C50.3566 6.28089 50.2554 6.62819 50.0553 6.92223C49.8573 7.21413 49.5707 7.44105 49.1957 7.60298C48.8229 7.76279 48.3731 7.84268 47.8464 7.84268C47.3239 7.84268 46.8689 7.76171 46.4812 7.59979C46.0957 7.43786 45.7944 7.19815 45.5774 6.88068C45.3625 6.56108 45.2498 6.16583 45.2393 5.69495H46.5634C46.5781 5.91442 46.6403 6.09765 46.7498 6.24467C46.8615 6.38956 47.01 6.49929 47.1954 6.57386C47.3829 6.64631 47.5946 6.68252 47.8306 6.68252C48.0623 6.68252 48.2635 6.64844 48.4341 6.58025C48.6069 6.51207 48.7407 6.41726 48.8355 6.29581C48.9303 6.17436 48.9777 6.0348 48.9777 5.87713C48.9777 5.73011 48.9345 5.60654 48.8481 5.50639C48.7639 5.40625 48.6395 5.32102 48.4752 5.25071C48.313 5.18039 48.1139 5.11648 47.8779 5.05895L47.1733 4.87997C46.6277 4.74574 46.1968 4.53587 45.8808 4.25036C45.5648 3.96484 45.4078 3.58025 45.4099 3.09659C45.4078 2.70029 45.5121 2.35405 45.7228 2.05788C45.9355 1.76171 46.2274 1.53054 46.5981 1.36434C46.9689 1.19815 47.3903 1.11506 47.8622 1.11506C48.3425 1.11506 48.7618 1.19815 49.1199 1.36434C49.4802 1.53054 49.7604 1.76171 49.9605 2.05788C50.1607 2.35405 50.2639 2.69708 50.2702 3.087H48.9587ZM52.6 4.91193V7.75H51.2538V1.20454H52.5621V3.70703H52.619C52.7285 3.41726 52.9054 3.19034 53.1499 3.02627C53.3942 2.86008 53.7008 2.77699 54.0694 2.77699C54.4065 2.77699 54.7004 2.85156 54.9511 3.00071C55.2039 3.14773 55.3999 3.35973 55.5389 3.63671C55.68 3.91157 55.7496 4.24076 55.7474 4.62429V7.75H54.4013V4.86719C54.4033 4.56463 54.3275 4.32919 54.1738 4.16087C54.022 3.99254 53.8093 3.90838 53.5354 3.90838C53.3521 3.90838 53.1898 3.9478 53.0487 4.02663C52.9097 4.10546 52.8001 4.22052 52.7201 4.3718C52.6421 4.52095 52.6021 4.70099 52.6 4.91193ZM59 7.84588C58.5091 7.84588 58.0846 7.74041 57.7265 7.52948C57.3705 7.3164 57.0955 7.02024 56.9017 6.64098C56.7079 6.25958 56.6109 5.81747 56.6109 5.31463C56.6109 4.80752 56.7079 4.36435 56.9017 3.98508C57.0955 3.60369 57.3705 3.30752 57.7265 3.09659C58.0846 2.88352 58.5091 2.77699 59 2.77699C59.4909 2.77699 59.9143 2.88352 60.2704 3.09659C60.6285 3.30752 60.9045 3.60369 61.0983 3.98508C61.2921 4.36435 61.389 4.80752 61.389 5.31463C61.389 5.81747 61.2921 6.25958 61.0983 6.64098C60.9045 7.02024 60.6285 7.3164 60.2704 7.52948C59.9143 7.74041 59.4909 7.84588 59 7.84588ZM59.0063 6.79119C59.2297 6.79119 59.4161 6.72727 59.5657 6.59943C59.7152 6.46946 59.828 6.29261 59.9038 6.06889C59.9818 5.84517 60.0207 5.59055 60.0207 5.30504C60.0207 5.01953 59.9818 4.76492 59.9038 4.54119C59.828 4.31747 59.7152 4.14062 59.5657 4.01065C59.4161 3.88068 59.2297 3.81569 59.0063 3.81569C58.7809 3.81569 58.5913 3.88068 58.4375 4.01065C58.2859 4.14062 58.171 4.31747 58.093 4.54119C58.0172 4.76492 57.9793 5.01953 57.9793 5.30504C57.9793 5.59055 58.0172 5.84517 58.093 6.06889C58.171 6.29261 58.2859 6.46946 58.4375 6.59943C58.5913 6.72727 58.7809 6.79119 59.0063 6.79119ZM65.3771 5.6598V2.84091H66.7233V7.75H65.4308V6.85831H65.3803C65.2707 7.14595 65.0885 7.37713 64.8336 7.55185C64.5808 7.72656 64.2721 7.81392 63.9076 7.81392C63.5832 7.81392 63.2978 7.73935 63.0513 7.5902C62.8048 7.44105 62.612 7.22905 62.473 6.95419C62.336 6.67933 62.2665 6.35014 62.2644 5.96662V2.84091H63.6106V5.72372C63.6127 6.01349 63.6896 6.24254 63.8413 6.41087C63.993 6.57919 64.1963 6.66335 64.4512 6.66335C64.6134 6.66335 64.7651 6.62606 64.9062 6.55149C65.0474 6.47479 65.1612 6.36186 65.2475 6.21271C65.3361 6.06356 65.3792 5.87926 65.3771 5.6598ZM69.1463 1.20454V7.75H67.8002V1.20454H69.1463ZM72.0133 7.8299C71.6447 7.8299 71.3108 7.73402 71.0116 7.54226C70.7145 7.34837 70.4786 7.06392 70.3037 6.68892C70.131 6.31179 70.0446 5.84943 70.0446 5.30185C70.0446 4.73935 70.1341 4.27166 70.3132 3.89879C70.4923 3.52379 70.7303 3.24361 71.0274 3.05824C71.3266 2.87074 71.6541 2.77699 72.0102 2.77699C72.2819 2.77699 72.5084 2.82386 72.6896 2.91761C72.8729 3.00923 73.0204 3.12429 73.132 3.26279C73.2458 3.39914 73.3321 3.53338 73.3912 3.66548H73.4323V1.20454H74.7752V7.75H73.4481V6.96377H73.3912C73.3279 7.10014 73.2384 7.23544 73.1226 7.36967C73.0087 7.50177 72.8603 7.6115 72.677 7.69886C72.4958 7.78622 72.2746 7.8299 72.0133 7.8299ZM72.44 6.74645C72.6569 6.74645 72.8403 6.68679 72.9898 6.56747C73.1415 6.44602 73.2574 6.27663 73.3374 6.0593C73.4196 5.84198 73.4607 5.58736 73.4607 5.29545C73.4607 5.00355 73.4206 4.75 73.3406 4.5348C73.2605 4.3196 73.1447 4.15341 72.993 4.03622C72.8413 3.91904 72.6569 3.86044 72.44 3.86044C72.2187 3.86044 72.0323 3.92117 71.8806 4.04261C71.7289 4.16406 71.6141 4.33238 71.5361 4.54758C71.4582 4.76279 71.4193 5.01207 71.4193 5.29545C71.4193 5.58096 71.4582 5.83345 71.5361 6.05291C71.6162 6.27024 71.731 6.44069 71.8806 6.56427C72.0323 6.68573 72.2187 6.74645 72.44 6.74645ZM79.3353 1.20454V7.75H77.967V1.20454H79.3353ZM15.7317 8.70452L17.296 13.6775H17.356L18.9235 8.70452H20.4403L18.2093 15.25H16.4459L14.2117 8.70452H15.7317ZM22.0393 15.3427C21.7296 15.3427 21.4536 15.2883 21.2114 15.1796C20.9691 15.0689 20.7774 14.9059 20.6362 14.6907C20.4972 14.4734 20.4277 14.2028 20.4277 13.8789C20.4277 13.6061 20.4772 13.3771 20.5762 13.1918C20.6752 13.0064 20.81 12.8573 20.9807 12.7443C21.1513 12.6314 21.3452 12.5462 21.5621 12.4886C21.7813 12.4311 22.0109 12.3906 22.251 12.3671C22.5334 12.3374 22.7609 12.3096 22.9337 12.2841C23.1064 12.2564 23.2318 12.2159 23.3097 12.1626C23.3876 12.1094 23.4266 12.0305 23.4266 11.9261V11.9069C23.4266 11.7045 23.3634 11.5479 23.237 11.4371C23.1127 11.3264 22.9357 11.2709 22.7061 11.2709C22.4639 11.2709 22.2711 11.3252 22.1278 11.4339C21.9845 11.5405 21.8897 11.6747 21.8434 11.8367L20.5983 11.7344C20.6615 11.4361 20.7858 11.1782 20.9712 10.9609C21.1566 10.7414 21.3957 10.5731 21.6886 10.456C21.9835 10.3367 22.3248 10.277 22.7124 10.277C22.9821 10.277 23.2401 10.3089 23.4866 10.3729C23.7352 10.4368 23.9554 10.5359 24.1471 10.6701C24.3409 10.8043 24.4937 10.9769 24.6053 11.1878C24.717 11.3966 24.7728 11.647 24.7728 11.9389V15.25H23.4961V14.5692H23.4582C23.3802 14.7227 23.276 14.858 23.1454 14.9751C23.0147 15.0902 22.8578 15.1808 22.6745 15.2468C22.4912 15.3108 22.2795 15.3427 22.0393 15.3427ZM22.4249 14.403C22.6229 14.403 22.7977 14.3636 22.9495 14.2848C23.1011 14.2038 23.2201 14.0951 23.3065 13.9588C23.3929 13.8224 23.4361 13.6679 23.4361 13.4954V12.9744C23.394 13.0021 23.336 13.0277 23.2623 13.0511C23.1907 13.0724 23.1096 13.0927 23.0189 13.1118C22.9284 13.1289 22.8378 13.1449 22.7472 13.1598C22.6566 13.1726 22.5744 13.1843 22.5007 13.1949C22.3427 13.2184 22.2047 13.2557 22.0867 13.3068C21.9687 13.358 21.8771 13.4272 21.8118 13.5146C21.7465 13.5998 21.7138 13.7063 21.7138 13.8341C21.7138 14.0195 21.7802 14.1612 21.913 14.2592C22.0478 14.3551 22.2184 14.403 22.4249 14.403ZM28.0104 15.3458C27.5132 15.3458 27.0855 15.2393 26.7273 15.0263C26.3713 14.8111 26.0974 14.5127 25.9057 14.1314C25.7161 13.75 25.6213 13.3111 25.6213 12.8146C25.6213 12.3118 25.7172 11.8707 25.9088 11.4914C26.1027 11.1101 26.3777 10.8128 26.7337 10.5998C27.0897 10.3846 27.5132 10.277 28.004 10.277C28.4275 10.277 28.7983 10.3547 29.1164 10.5103C29.4345 10.6658 29.6863 10.8842 29.8717 11.1655C30.0571 11.4467 30.1592 11.777 30.1782 12.1562H28.9078C28.872 11.9112 28.7772 11.7141 28.6235 11.5649C28.4717 11.4137 28.2726 11.3381 28.0262 11.3381C27.8176 11.3381 27.6354 11.3956 27.4794 11.5106C27.3257 11.6236 27.2056 11.7887 27.1192 12.006C27.0329 12.2234 26.9896 12.4865 26.9896 12.7955C26.9896 13.1087 27.0318 13.375 27.1161 13.5944C27.2024 13.8139 27.3235 13.9811 27.4794 14.0962C27.6354 14.2113 27.8176 14.2688 28.0262 14.2688C28.1799 14.2688 28.3179 14.2368 28.4401 14.1729C28.5644 14.109 28.6666 14.0163 28.7467 13.8949C28.8288 13.7713 28.8826 13.6232 28.9078 13.4507H30.1782C30.1571 13.8257 30.056 14.1559 29.8749 14.4414C29.6958 14.7248 29.4482 14.9464 29.1322 15.1061C28.8162 15.266 28.4422 15.3458 28.0104 15.3458ZM32.4242 15.3427C32.1146 15.3427 31.8385 15.2883 31.5963 15.1796C31.354 15.0689 31.1623 14.9059 31.0212 14.6907C30.8821 14.4734 30.8126 14.2028 30.8126 13.8789C30.8126 13.6061 30.8621 13.3771 30.9611 13.1918C31.0601 13.0064 31.1949 12.8573 31.3656 12.7443C31.5363 12.6314 31.73 12.5462 31.947 12.4886C32.1662 12.4311 32.3958 12.3906 32.636 12.3671C32.9183 12.3374 33.1458 12.3096 33.3186 12.2841C33.4913 12.2564 33.6167 12.2159 33.6946 12.1626C33.7726 12.1094 33.8116 12.0305 33.8116 11.9261V11.9069C33.8116 11.7045 33.7483 11.5479 33.622 11.4371C33.4977 11.3264 33.3206 11.2709 33.0911 11.2709C32.8488 11.2709 32.656 11.3252 32.5127 11.4339C32.3695 11.5405 32.2747 11.6747 32.2283 11.8367L30.9832 11.7344C31.0465 11.4361 31.1708 11.1782 31.3561 10.9609C31.5415 10.7414 31.7806 10.5731 32.0735 10.456C32.3684 10.3367 32.7097 10.277 33.0974 10.277C33.367 10.277 33.6251 10.3089 33.8716 10.3729C34.1201 10.4368 34.3403 10.5359 34.532 10.6701C34.7259 10.8043 34.8786 10.9769 34.9902 11.1878C35.1019 11.3966 35.1577 11.647 35.1577 11.9389V15.25H33.8811V14.5692H33.8432C33.7652 14.7227 33.6609 14.858 33.5303 14.9751C33.3997 15.0902 33.2427 15.1808 33.0594 15.2468C32.8762 15.3108 32.6644 15.3427 32.4242 15.3427ZM32.8098 14.403C33.0078 14.403 33.1826 14.3636 33.3344 14.2848C33.486 14.2038 33.605 14.0951 33.6914 13.9588C33.7778 13.8224 33.821 13.6679 33.821 13.4954V12.9744C33.7789 13.0021 33.7209 13.0277 33.6472 13.0511C33.5756 13.0724 33.4945 13.0927 33.4039 13.1118C33.3133 13.1289 33.2227 13.1449 33.1321 13.1598C33.0415 13.1726 32.9594 13.1843 32.8856 13.1949C32.7276 13.2184 32.5896 13.2557 32.4716 13.3068C32.3536 13.358 32.2621 13.4272 32.1967 13.5146C32.1314 13.5998 32.0988 13.7063 32.0988 13.8341C32.0988 14.0195 32.1651 14.1612 32.2979 14.2592C32.4327 14.3551 32.6033 14.403 32.8098 14.403ZM38.784 10.3409V11.3636H35.8608V10.3409H38.784ZM36.5245 9.1648H37.8707V13.7414C37.8707 13.8671 37.8896 13.9652 37.9276 14.0355C37.9655 14.1037 38.0181 14.1516 38.0856 14.1793C38.1551 14.207 38.2352 14.2208 38.3257 14.2208C38.3889 14.2208 38.4522 14.2155 38.5154 14.2049C38.5786 14.1921 38.627 14.1825 38.6607 14.1761L38.8724 15.1892C38.805 15.2105 38.7103 15.2351 38.588 15.2627C38.4658 15.2926 38.3173 15.3107 38.1425 15.3171C37.8181 15.3299 37.5336 15.2862 37.2893 15.1861C37.047 15.0859 36.8584 14.9304 36.7236 14.7194C36.5888 14.5085 36.5224 14.2421 36.5245 13.9205V9.1648ZM39.6609 15.25V10.3409H41.0071V15.25H39.6609ZM40.3372 9.7081C40.137 9.7081 39.9653 9.64097 39.8221 9.50672C39.6809 9.37037 39.6104 9.2074 39.6104 9.01772C39.6104 8.83022 39.6809 8.66942 39.8221 8.53517C39.9653 8.39879 40.137 8.33061 40.3372 8.33061C40.5373 8.33061 40.708 8.39879 40.8491 8.53517C40.9924 8.66942 41.064 8.83022 41.064 9.01772C41.064 9.2074 40.9924 9.37037 40.8491 9.50672C40.708 9.64097 40.5373 9.7081 40.3372 9.7081ZM44.2787 15.3458C43.7877 15.3458 43.3633 15.2404 43.0051 15.0295C42.649 14.8164 42.3741 14.5202 42.1803 14.141C41.9864 13.7596 41.8896 13.3175 41.8896 12.8146C41.8896 12.3075 41.9864 11.8643 42.1803 11.4851C42.3741 11.1037 42.649 10.8075 43.0051 10.5966C43.3633 10.3835 43.7877 10.277 44.2787 10.277C44.7695 10.277 45.1929 10.3835 45.549 10.5966C45.9071 10.8075 46.1831 11.1037 46.3769 11.4851C46.5708 11.8643 46.6676 12.3075 46.6676 12.8146C46.6676 13.3175 46.5708 13.7596 46.3769 14.141C46.1831 14.5202 45.9071 14.8164 45.549 15.0295C45.1929 15.2404 44.7695 15.3458 44.2787 15.3458ZM44.285 14.2912C44.5082 14.2912 44.6947 14.2273 44.8442 14.0994C44.9938 13.9694 45.1065 13.7926 45.1824 13.5689C45.2603 13.3451 45.2994 13.0905 45.2994 12.8051C45.2994 12.5195 45.2603 12.2649 45.1824 12.0412C45.1065 11.8175 44.9938 11.6406 44.8442 11.5106C44.6947 11.3807 44.5082 11.3157 44.285 11.3157C44.0595 11.3157 43.8699 11.3807 43.7161 11.5106C43.5644 11.6406 43.4496 11.8175 43.3716 12.0412C43.2958 12.2649 43.2579 12.5195 43.2579 12.8051C43.2579 13.0905 43.2958 13.3451 43.3716 13.5689C43.4496 13.7926 43.5644 13.9694 43.7161 14.0994C43.8699 14.2273 44.0595 14.2912 44.285 14.2912ZM48.8892 12.4119V15.25H47.543V10.3409H48.8261V11.207H48.8829C48.9903 10.9215 49.1704 10.6957 49.4233 10.5295C49.6761 10.3611 49.9826 10.277 50.3429 10.277C50.68 10.277 50.9739 10.3516 51.2245 10.5007C51.4752 10.6499 51.6701 10.8629 51.8092 11.1399C51.9482 11.4148 52.0177 11.7429 52.0177 12.1243V15.25H50.6715V12.3671C50.6736 12.0668 50.5978 11.8324 50.444 11.6641C50.2902 11.4936 50.0785 11.4083 49.8088 11.4083C49.6276 11.4083 49.4675 11.4478 49.3285 11.5266C49.1916 11.6054 49.0841 11.7205 49.0062 11.8718C48.9303 12.0209 48.8913 12.201 48.8892 12.4119ZM54.2353 13.2876V13.1789C54.2375 12.8061 54.2701 12.5089 54.3333 12.2873C54.3986 12.0657 54.4934 11.8867 54.6177 11.7503C54.742 11.614 54.8916 11.4904 55.0665 11.3796C55.1971 11.2944 55.314 11.206 55.4172 11.1143C55.5205 11.0227 55.6026 10.9215 55.6637 10.8107C55.7248 10.6978 55.7554 10.5721 55.7554 10.4336C55.7554 10.2866 55.7206 10.1576 55.651 10.0469C55.5816 9.9361 55.4878 9.85082 55.3698 9.7912C55.2539 9.7315 55.1254 9.70172 54.9843 9.70172C54.8473 9.70172 54.7178 9.73262 54.5956 9.79442C54.4734 9.85405 54.3733 9.94352 54.2954 10.0628C54.2174 10.1801 54.1753 10.326 54.169 10.5007H52.8796C52.8902 10.0745 52.9913 9.72302 53.183 9.44605C53.3747 9.1669 53.6286 8.95915 53.9446 8.8228C54.2606 8.68427 54.6093 8.61505 54.9906 8.61505C55.4099 8.61505 55.7807 8.6854 56.103 8.82602C56.4253 8.96447 56.6781 9.16585 56.8614 9.43007C57.0447 9.69422 57.1363 10.0127 57.1363 10.3856C57.1363 10.6349 57.0953 10.8565 57.0131 11.0504C56.933 11.2421 56.8203 11.4126 56.6749 11.5618C56.5296 11.7088 56.3579 11.842 56.1598 11.9613C55.9934 12.0614 55.8565 12.1658 55.749 12.2745C55.6437 12.3832 55.5647 12.5089 55.512 12.6516C55.4615 12.7944 55.4351 12.9701 55.433 13.1789V13.2876H54.2353ZM54.861 15.3331C54.6504 15.3331 54.4702 15.2585 54.3207 15.1094C54.1732 14.9581 54.1005 14.777 54.1026 14.5661C54.1005 14.3573 54.1732 14.1782 54.3207 14.0291C54.4702 13.88 54.6504 13.8054 54.861 13.8054C55.0612 13.8054 55.2371 13.88 55.3888 14.0291C55.5405 14.1782 55.6174 14.3573 55.6195 14.5661C55.6174 14.7067 55.5805 14.8355 55.5089 14.9528C55.4393 15.0678 55.3477 15.1605 55.2339 15.2308C55.1201 15.299 54.9959 15.3331 54.861 15.3331Z" fill="white"/>
</g>
<path fill-rule="evenodd" clip-rule="evenodd" d="M4.66859 0.132402C2.90119 0.495787 1.21262 1.86219 0.434218 3.55901C-0.213969 4.97168 -0.13012 7.03112 0.643261 8.69459L1.17649 9.84161L1.97035 9.04949L2.76421 8.25737L2.4464 7.46487C1.50204 5.1099 3.00668 2.61402 5.55209 2.31329C6.38614 2.21459 6.73293 2.27743 7.57954 2.68014C8.14117 2.94752 8.83534 3.21992 9.12185 3.28565C9.68581 3.4152 9.66282 3.31129 9.73044 6.03735C9.75613 7.07199 9.68445 7.33436 9.17788 8.06151C8.11741 9.58368 6.19391 10.1504 4.45085 9.45452C3.61951 9.12275 3.54281 9.00901 3.90603 8.64659C4.08628 8.46673 4.06793 8.41526 3.82295 8.41526C3.64965 8.41526 3.0629 8.82741 2.51904 9.33095L1.53005 10.2466L3.37183 12.9455C5.28992 15.756 5.79533 16.2453 6.43077 15.906C6.95396 15.6265 11.3013 8.98992 11.6717 7.90517C13.1754 3.50156 9.28434 -0.817024 4.66859 0.132402ZM7.99898 3.83333C7.69237 4.06987 7.41261 4.33012 7.37726 4.41166C7.28027 4.63451 6.59538 4.5869 5.42362 4.27576C4.66163 4.07353 4.30228 4.05406 4.11951 4.20539C3.70974 4.54468 3.8158 4.70044 4.83339 5.25314C5.36469 5.54153 5.79939 5.83551 5.79939 5.90626C5.79939 6.26656 4.84711 6.8528 4.17206 6.90774C3.23639 6.98389 3.08415 7.32048 3.84362 7.63432C4.16144 7.7656 4.51712 8.11876 4.64714 8.43183C4.94873 9.15841 5.41299 9.17017 5.41299 8.4513C5.41299 8.10084 5.6172 7.71374 5.99066 7.35691C6.30828 7.05329 6.60117 6.84181 6.64174 6.88711C6.68212 6.93242 6.89889 7.3893 7.12339 7.90228C7.71845 9.26193 8.00941 9.00592 8.0778 7.06254C8.12514 5.71966 8.19759 5.40774 8.51366 5.18682C8.98198 4.85948 9.527 3.84355 9.37012 3.59024C9.17537 3.27582 8.58553 3.3805 7.99898 3.83333Z" fill="white"/>
<defs>
<clipPath id="clip0_22_2">
<rect width="66" height="15" fill="white" transform="translate(14 1)"/>
</clipPath>
</defs>
</svg>
