<svg width="57" height="11" viewBox="0 0 57 11" fill="none" xmlns="http://www.w3.org/2000/svg">
<g clip-path="url(#clip0_0_1)">
<path d="M13.3768 5.5L12.1142 1.13636H13.1333L13.8637 4.16833H13.9004L14.7062 1.13636H15.5788L16.3825 4.17472H16.4213L17.1517 1.13636H18.1708L16.9082 5.5H15.999L15.1587 2.64702H15.1242L14.2861 5.5H13.3768ZM19.5708 3.60796V5.5H18.6529V1.13636H19.5449V2.80469H19.5837C19.6584 2.61151 19.7791 2.46023 19.9457 2.35085C20.1123 2.24006 20.3213 2.18466 20.5727 2.18466C20.8025 2.18466 21.0029 2.23438 21.1738 2.33381C21.3462 2.43182 21.4798 2.57316 21.5746 2.75781C21.6709 2.94105 21.7182 3.16051 21.7168 3.4162V5.5H20.7989V3.57813C20.8004 3.37642 20.7487 3.21946 20.6438 3.10725C20.5404 2.99503 20.3953 2.93892 20.2086 2.93892C20.0836 2.93892 19.973 2.9652 19.8768 3.01776C19.782 3.07031 19.7073 3.14702 19.6527 3.24787C19.5995 3.3473 19.5722 3.46733 19.5708 3.60796ZM23.9474 5.56392C23.607 5.56392 23.3139 5.49574 23.0683 5.35938C22.8241 5.22159 22.6359 5.02699 22.5038 4.77557C22.3716 4.52273 22.3056 4.22372 22.3056 3.87855C22.3056 3.54191 22.3716 3.24645 22.5038 2.99219C22.6359 2.73793 22.8219 2.53978 23.0618 2.39773C23.3031 2.25568 23.5861 2.18466 23.9107 2.18466C24.1291 2.18466 24.3323 2.21946 24.5205 2.28906C24.7101 2.35725 24.8753 2.46023 25.0161 2.59801C25.1583 2.7358 25.2689 2.90909 25.3479 3.1179C25.4269 3.32529 25.4664 3.56818 25.4664 3.84659V4.09588H22.6718V3.53338H24.6024C24.6024 3.4027 24.5737 3.28693 24.5162 3.18608C24.4587 3.08523 24.379 3.00639 24.277 2.94958C24.1765 2.89134 24.0594 2.86222 23.9258 2.86222C23.7865 2.86222 23.663 2.89418 23.5552 2.9581C23.449 3.0206 23.3656 3.10512 23.3053 3.21165C23.245 3.31676 23.2141 3.43395 23.2126 3.56321V4.09801C23.2126 4.25995 23.2428 4.39986 23.3031 4.51776C23.3649 4.63566 23.4518 4.72656 23.5638 4.79049C23.6759 4.85441 23.8088 4.88637 23.9625 4.88637C24.0644 4.88637 24.1578 4.87216 24.2426 4.84375C24.3273 4.81534 24.3998 4.77273 24.4602 4.71591C24.5205 4.65909 24.5665 4.58949 24.5981 4.5071L25.447 4.5625C25.4039 4.76421 25.3156 4.94034 25.182 5.09091C25.0498 5.24006 24.8789 5.35654 24.6692 5.44034C24.4609 5.52273 24.2203 5.56392 23.9474 5.56392ZM26.0654 5.5V2.22728H26.9552V2.7983H26.9897C27.05 2.59517 27.1513 2.44176 27.2935 2.33807C27.4357 2.23296 27.5995 2.1804 27.7848 2.1804C27.8307 2.1804 27.8803 2.18324 27.9334 2.18892C27.9866 2.1946 28.0332 2.20242 28.0735 2.21236V3.01776C28.0304 3.00497 27.9708 2.99361 27.8947 2.98367C27.8185 2.97372 27.7488 2.96875 27.6856 2.96875C27.5506 2.96875 27.4299 2.99787 27.3237 3.05611C27.2188 3.11293 27.1355 3.19247 27.0737 3.29475C27.0134 3.39702 26.9832 3.51492 26.9832 3.64844V5.5H26.0654ZM29.9022 5.56392C29.5618 5.56392 29.2688 5.49574 29.0231 5.35938C28.7789 5.22159 28.5908 5.02699 28.4586 4.77557C28.3265 4.52273 28.2604 4.22372 28.2604 3.87855C28.2604 3.54191 28.3265 3.24645 28.4586 2.99219C28.5908 2.73793 28.7768 2.53978 29.0167 2.39773C29.258 2.25568 29.5409 2.18466 29.8656 2.18466C30.0839 2.18466 30.2872 2.21946 30.4753 2.28906C30.6649 2.35725 30.8301 2.46023 30.9709 2.59801C31.1131 2.7358 31.2237 2.90909 31.3027 3.1179C31.3817 3.32529 31.4212 3.56818 31.4212 3.84659V4.09588H28.6267V3.53338H30.5572C30.5572 3.4027 30.5285 3.28693 30.471 3.18608C30.4136 3.08523 30.3339 3.00639 30.2319 2.94958C30.1313 2.89134 30.0143 2.86222 29.8807 2.86222C29.7413 2.86222 29.6178 2.89418 29.5101 2.9581C29.4038 3.0206 29.3204 3.10512 29.2601 3.21165C29.1998 3.31676 29.1689 3.43395 29.1675 3.56321V4.09801C29.1675 4.25995 29.1976 4.39986 29.258 4.51776C29.3197 4.63566 29.4067 4.72656 29.5187 4.79049C29.6307 4.85441 29.7636 4.88637 29.9173 4.88637C30.0193 4.88637 30.1126 4.87216 30.1974 4.84375C30.2821 4.81534 30.3547 4.77273 30.415 4.71591C30.4753 4.65909 30.5213 4.58949 30.5529 4.5071L31.4018 4.5625C31.3587 4.76421 31.2704 4.94034 31.1368 5.09091C31.0047 5.24006 30.8337 5.35654 30.624 5.44034C30.4157 5.52273 30.1751 5.56392 29.9022 5.56392ZM35.8355 2.39134C35.8182 2.21946 35.7443 2.08594 35.6136 1.99077C35.4829 1.8956 35.3054 1.84801 35.0814 1.84801C34.9291 1.84801 34.8006 1.86932 34.6957 1.91193C34.5909 1.95313 34.5104 2.01066 34.4544 2.08452C34.3998 2.15838 34.3725 2.24219 34.3725 2.33594C34.3696 2.41407 34.3862 2.48225 34.4221 2.54049C34.4594 2.59872 34.5104 2.64915 34.575 2.69176C34.6397 2.73296 34.7144 2.76918 34.7991 2.80043C34.8839 2.83026 34.9744 2.85583 35.0706 2.87713L35.467 2.97088C35.6595 3.0135 35.8362 3.07031 35.9971 3.14134C36.158 3.21236 36.2973 3.29972 36.4151 3.40341C36.5329 3.5071 36.6241 3.62926 36.6887 3.76989C36.7548 3.91051 36.7886 4.07174 36.79 4.25355C36.7886 4.5206 36.7196 4.75213 36.5831 4.94816C36.4481 5.14276 36.2528 5.29404 35.9971 5.40199C35.7429 5.50853 35.4362 5.56179 35.0771 5.56179C34.7209 5.56179 34.4106 5.50781 34.1463 5.39986C33.8834 5.29191 33.678 5.1321 33.5301 4.92046C33.3835 4.70739 33.3067 4.44389 33.2995 4.12997H34.2023C34.2124 4.27628 34.2547 4.39844 34.3294 4.49645C34.4056 4.59304 34.5068 4.6662 34.6332 4.71591C34.7611 4.76421 34.9054 4.78835 35.0663 4.78835C35.2243 4.78835 35.3615 4.76563 35.4778 4.72017C35.5956 4.67472 35.6868 4.61151 35.7515 4.53054C35.8161 4.44958 35.8484 4.35654 35.8484 4.25142C35.8484 4.15341 35.819 4.07103 35.7601 4.00426C35.7027 3.9375 35.6179 3.88068 35.5058 3.83381C35.3952 3.78693 35.2595 3.74432 35.0986 3.70597L34.6182 3.58665C34.2461 3.49716 33.9524 3.35725 33.7369 3.16691C33.5214 2.97656 33.4144 2.72017 33.4159 2.39773C33.4144 2.13353 33.4855 1.9027 33.6292 1.70526C33.7742 1.50781 33.9732 1.35369 34.226 1.2429C34.4788 1.1321 34.7661 1.07671 35.0878 1.07671C35.4154 1.07671 35.7012 1.1321 35.9454 1.2429C36.191 1.35369 36.3821 1.50781 36.5185 1.70526C36.655 1.9027 36.7254 2.13139 36.7297 2.39134H35.8355ZM38.3182 3.60796V5.5H37.4003V1.13636H38.2923V2.80469H38.3311C38.4058 2.61151 38.5264 2.46023 38.6931 2.35085C38.8597 2.24006 39.0687 2.18466 39.3201 2.18466C39.5499 2.18466 39.7503 2.23438 39.9212 2.33381C40.0936 2.43182 40.2272 2.57316 40.322 2.75781C40.4182 2.94105 40.4656 3.16051 40.4642 3.4162V5.5H39.5463V3.57813C39.5477 3.37642 39.496 3.21946 39.3912 3.10725C39.2877 2.99503 39.1427 2.93892 38.956 2.93892C38.831 2.93892 38.7203 2.9652 38.6241 3.01776C38.5293 3.07031 38.4546 3.14702 38.4 3.24787C38.3469 3.3473 38.3196 3.46733 38.3182 3.60796ZM42.6818 5.56392C42.3471 5.56392 42.0577 5.49361 41.8135 5.35299C41.5708 5.21094 41.3833 5.0135 41.2512 4.76066C41.119 4.50639 41.0529 4.21165 41.0529 3.87642C41.0529 3.53835 41.119 3.2429 41.2512 2.99006C41.3833 2.7358 41.5708 2.53835 41.8135 2.39773C42.0577 2.25568 42.3471 2.18466 42.6818 2.18466C43.0165 2.18466 43.3052 2.25568 43.548 2.39773C43.7921 2.53835 43.9803 2.7358 44.1125 2.99006C44.2446 3.2429 44.3107 3.53835 44.3107 3.87642C44.3107 4.21165 44.2446 4.50639 44.1125 4.76066C43.9803 5.0135 43.7921 5.21094 43.548 5.35299C43.3052 5.49361 43.0165 5.56392 42.6818 5.56392ZM42.6861 4.8608C42.8384 4.8608 42.9655 4.81818 43.0675 4.73296C43.1695 4.64631 43.2463 4.52841 43.2981 4.37926C43.3512 4.23012 43.3777 4.06037 43.3777 3.87003C43.3777 3.67969 43.3512 3.50995 43.2981 3.3608C43.2463 3.21165 43.1695 3.09375 43.0675 3.0071C42.9655 2.92046 42.8384 2.87713 42.6861 2.87713C42.5324 2.87713 42.4032 2.92046 42.2983 3.0071C42.1949 3.09375 42.1166 3.21165 42.0634 3.3608C42.0117 3.50995 41.9859 3.67969 41.9859 3.87003C41.9859 4.06037 42.0117 4.23012 42.0634 4.37926C42.1166 4.52841 42.1949 4.64631 42.2983 4.73296C42.4032 4.81818 42.5324 4.8608 42.6861 4.8608ZM47.0298 4.10654V2.22728H47.9477V5.5H47.0665V4.90554H47.032C46.9573 5.0973 46.833 5.25142 46.6593 5.3679C46.4869 5.48438 46.2764 5.54262 46.0279 5.54262C45.8067 5.54262 45.6121 5.4929 45.444 5.39347C45.276 5.29404 45.1446 5.1527 45.0498 4.96946C44.9564 4.78622 44.909 4.56676 44.9075 4.31108V2.22728H45.8254V4.14915C45.8269 4.34233 45.8793 4.49503 45.9827 4.60725C46.0861 4.71946 46.2247 4.77557 46.3986 4.77557C46.5091 4.77557 46.6126 4.75071 46.7088 4.701C46.805 4.64986 46.8826 4.57458 46.9415 4.47514C47.0019 4.37571 47.0313 4.25284 47.0298 4.10654ZM49.5998 1.13636V5.5H48.6819V1.13636H49.5998ZM51.5545 5.55327C51.3032 5.55327 51.0755 5.48935 50.8716 5.36151C50.669 5.23225 50.5081 5.04262 50.3889 4.79262C50.2711 4.5412 50.2122 4.23296 50.2122 3.8679C50.2122 3.4929 50.2733 3.18111 50.3954 2.93253C50.5175 2.68253 50.6798 2.49574 50.8823 2.37216C51.0863 2.24716 51.3096 2.18466 51.5524 2.18466C51.7377 2.18466 51.8921 2.21591 52.0156 2.27841C52.1406 2.33949 52.2412 2.4162 52.3173 2.50853C52.3948 2.59943 52.4537 2.68892 52.494 2.77699H52.522V1.13636H53.4377V5.5H52.5328V4.97585H52.494C52.4509 5.06676 52.3898 5.15696 52.3108 5.24645C52.2332 5.33452 52.132 5.40767 52.007 5.46591C51.8835 5.52415 51.7327 5.55327 51.5545 5.55327ZM51.8454 4.83097C51.9934 4.83097 52.1184 4.7912 52.2203 4.71165C52.3237 4.63068 52.4028 4.51776 52.4573 4.37287C52.5133 4.22799 52.5414 4.05824 52.5414 3.86364C52.5414 3.66904 52.5141 3.5 52.4595 3.35654C52.4049 3.21307 52.3259 3.10228 52.2225 3.02415C52.1191 2.94603 51.9934 2.90696 51.8454 2.90696C51.6946 2.90696 51.5675 2.94745 51.464 3.02841C51.3606 3.10938 51.2824 3.22159 51.2292 3.36506C51.176 3.50853 51.1495 3.67472 51.1495 3.86364C51.1495 4.05398 51.176 4.2223 51.2292 4.36861C51.2838 4.5135 51.3621 4.62713 51.464 4.70952C51.5675 4.79049 51.6946 4.83097 51.8454 4.83097ZM56.5468 1.13636V5.5H55.6138V1.13636H56.5468ZM13.1807 6.13635L14.2473 9.4517H14.2882L15.3569 6.13635H16.3911L14.87 10.5H13.6677L12.1444 6.13635H13.1807ZM17.4814 10.5618C17.2702 10.5618 17.082 10.5256 16.9168 10.4531C16.7517 10.3793 16.6209 10.2706 16.5247 10.1272C16.4299 9.98225 16.3825 9.80185 16.3825 9.58595C16.3825 9.4041 16.4163 9.2514 16.4838 9.12785C16.5513 9.00425 16.6432 8.90485 16.7596 8.82955C16.8759 8.75425 17.0081 8.69745 17.156 8.6591C17.3054 8.62075 17.462 8.59375 17.6257 8.5781C17.8182 8.55825 17.9733 8.53975 18.0911 8.52275C18.2089 8.50425 18.2944 8.47725 18.3475 8.44175C18.4007 8.40625 18.4272 8.3537 18.4272 8.2841V8.2713C18.4272 8.13635 18.3841 8.03195 18.298 7.9581C18.2132 7.88425 18.0925 7.8473 17.936 7.8473C17.7708 7.8473 17.6394 7.8835 17.5417 7.95595C17.444 8.027 17.3794 8.1165 17.3478 8.22445L16.4989 8.15625C16.5419 7.9574 16.6267 7.7855 16.7531 7.6406C16.8795 7.4943 17.0425 7.3821 17.2422 7.304C17.4433 7.22445 17.676 7.18465 17.9403 7.18465C18.1241 7.18465 18.3001 7.20595 18.4682 7.2486C18.6377 7.2912 18.7878 7.35725 18.9185 7.44675C19.0506 7.5362 19.1548 7.6513 19.2309 7.7919C19.307 7.9311 19.3451 8.098 19.3451 8.2926V10.5H18.4746V10.0462H18.4488C18.3956 10.1485 18.3245 10.2387 18.2355 10.3168C18.1464 10.3935 18.0394 10.4539 17.9144 10.4979C17.7895 10.5405 17.6451 10.5618 17.4814 10.5618ZM17.7442 9.93535C17.8792 9.93535 17.9984 9.9091 18.1019 9.85655C18.2053 9.80255 18.2864 9.7301 18.3454 9.6392C18.4043 9.5483 18.4337 9.4453 18.4337 9.33025V8.98295C18.405 9.0014 18.3655 9.01845 18.3152 9.0341C18.2664 9.0483 18.2111 9.0618 18.1493 9.07455C18.0875 9.08595 18.0258 9.0966 17.964 9.10655C17.9022 9.11505 17.8462 9.12285 17.7959 9.12995C17.6882 9.1456 17.5941 9.17045 17.5137 9.20455C17.4332 9.23865 17.3708 9.2848 17.3262 9.34305C17.2817 9.39985 17.2594 9.4709 17.2594 9.5561C17.2594 9.6797 17.3047 9.77415 17.3952 9.8395C17.4871 9.9034 17.6035 9.93535 17.7442 9.93535ZM21.5525 10.5639C21.2135 10.5639 20.9219 10.4929 20.6777 10.3509C20.435 10.2074 20.2482 10.0085 20.1175 9.75425C19.9883 9.5 19.9236 9.2074 19.9236 8.8764C19.9236 8.5412 19.989 8.24715 20.1197 7.9943C20.2518 7.74005 20.4393 7.5419 20.6821 7.39985C20.9248 7.2564 21.2135 7.18465 21.5482 7.18465C21.8369 7.18465 22.0898 7.2365 22.3066 7.3402C22.5235 7.4439 22.6952 7.5895 22.8216 7.777C22.948 7.9645 23.0177 8.18465 23.0306 8.4375H22.1644C22.14 8.27415 22.0753 8.14275 21.9705 8.0433C21.8671 7.94245 21.7313 7.89205 21.5633 7.89205C21.4211 7.89205 21.2968 7.9304 21.1905 8.0071C21.0857 8.0824 21.0038 8.19245 20.9449 8.33735C20.886 8.48225 20.8566 8.65765 20.8566 8.86365C20.8566 9.07245 20.8853 9.25 20.9428 9.3963C21.0017 9.5426 21.0842 9.6541 21.1905 9.7308C21.2968 9.80755 21.4211 9.8459 21.5633 9.8459C21.6681 9.8459 21.7622 9.82455 21.8455 9.78195C21.9303 9.73935 22 9.67755 22.0546 9.5966C22.1105 9.5142 22.1472 9.4155 22.1644 9.30045H23.0306C23.0162 9.55045 22.9473 9.7706 22.8238 9.96095C22.7017 10.1499 22.5329 10.2976 22.3174 10.4041C22.1019 10.5107 21.847 10.5639 21.5525 10.5639ZM24.562 10.5618C24.3508 10.5618 24.1626 10.5256 23.9975 10.4531C23.8323 10.3793 23.7016 10.2706 23.6053 10.1272C23.5105 9.98225 23.4631 9.80185 23.4631 9.58595C23.4631 9.4041 23.4969 9.2514 23.5644 9.12785C23.6319 9.00425 23.7238 8.90485 23.8402 8.82955C23.9566 8.75425 24.0887 8.69745 24.2366 8.6591C24.386 8.62075 24.5426 8.59375 24.7063 8.5781C24.8988 8.55825 25.0539 8.53975 25.1718 8.52275C25.2895 8.50425 25.375 8.47725 25.4282 8.44175C25.4813 8.40625 25.5079 8.3537 25.5079 8.2841V8.2713C25.5079 8.13635 25.4648 8.03195 25.3786 7.9581C25.2939 7.88425 25.1732 7.8473 25.0166 7.8473C24.8514 7.8473 24.72 7.8835 24.6223 7.95595C24.5247 8.027 24.46 8.1165 24.4284 8.22445L23.5795 8.15625C23.6226 7.9574 23.7073 7.7855 23.8337 7.6406C23.9601 7.4943 24.1232 7.3821 24.3228 7.304C24.5239 7.22445 24.7566 7.18465 25.0209 7.18465C25.2048 7.18465 25.3807 7.20595 25.5488 7.2486C25.7183 7.2912 25.8684 7.35725 25.9991 7.44675C26.1313 7.5362 26.2354 7.6513 26.3115 7.7919C26.3877 7.9311 26.4257 8.098 26.4257 8.2926V10.5H25.5553V10.0462H25.5294C25.4763 10.1485 25.4051 10.2387 25.3161 10.3168C25.2271 10.3935 25.12 10.4539 24.995 10.4979C24.8701 10.5405 24.7257 10.5618 24.562 10.5618ZM24.8248 9.93535C24.9598 9.93535 25.0791 9.9091 25.1825 9.85655C25.2859 9.80255 25.3671 9.7301 25.426 9.6392C25.4849 9.5483 25.5143 9.4453 25.5143 9.33025V8.98295C25.4856 9.0014 25.4461 9.01845 25.3958 9.0341C25.347 9.0483 25.2917 9.0618 25.2299 9.07455C25.1682 9.08595 25.1064 9.0966 25.0446 9.10655C24.9829 9.11505 24.9268 9.12285 24.8766 9.12995C24.7688 9.1456 24.6747 9.17045 24.5943 9.20455C24.5138 9.23865 24.4514 9.2848 24.4069 9.34305C24.3623 9.39985 24.3401 9.4709 24.3401 9.5561C24.3401 9.6797 24.3853 9.77415 24.4758 9.8395C24.5677 9.9034 24.6841 9.93535 24.8248 9.93535ZM28.8982 7.22725V7.9091H26.9051V7.22725H28.8982ZM27.3576 6.4432H28.2755V9.4943C28.2755 9.5781 28.2884 9.64345 28.3143 9.69035C28.3401 9.7358 28.376 9.76775 28.422 9.7862C28.4694 9.8047 28.524 9.8139 28.5857 9.8139C28.6288 9.8139 28.6719 9.81035 28.715 9.80325C28.7581 9.79475 28.7912 9.78835 28.8141 9.7841L28.9585 10.4595C28.9125 10.4737 28.8479 10.4901 28.7646 10.5085C28.6812 10.5284 28.58 10.5405 28.4608 10.5448C28.2396 10.5533 28.0456 10.5242 27.879 10.4574C27.7138 10.3906 27.5853 10.287 27.4933 10.1463C27.4014 10.0057 27.3562 9.8281 27.3576 9.61365V6.4432ZM29.496 10.5V7.22725H30.4139V10.5H29.496ZM29.9572 6.8054C29.8207 6.8054 29.7036 6.76065 29.606 6.67115C29.5097 6.58025 29.4616 6.4716 29.4616 6.34515C29.4616 6.22015 29.5097 6.11295 29.606 6.02345C29.7036 5.93253 29.8207 5.88708 29.9572 5.88708C30.0936 5.88708 30.21 5.93253 30.3062 6.02345C30.4039 6.11295 30.4527 6.22015 30.4527 6.34515C30.4527 6.4716 30.4039 6.58025 30.3062 6.67115C30.21 6.76065 30.0936 6.8054 29.9572 6.8054ZM32.6445 10.5639C32.3098 10.5639 32.0204 10.4936 31.7762 10.353C31.5334 10.211 31.346 10.0135 31.2138 9.76065C31.0817 9.5064 31.0156 9.21165 31.0156 8.8764C31.0156 8.53835 31.0817 8.2429 31.2138 7.99005C31.346 7.7358 31.5334 7.53835 31.7762 7.39775C32.0204 7.2557 32.3098 7.18465 32.6445 7.18465C32.9792 7.18465 33.2679 7.2557 33.5107 7.39775C33.7549 7.53835 33.943 7.7358 34.0752 7.99005C34.2073 8.2429 34.2734 8.53835 34.2734 8.8764C34.2734 9.21165 34.2073 9.5064 34.0752 9.76065C33.943 10.0135 33.7549 10.211 33.5107 10.353C33.2679 10.4936 32.9792 10.5639 32.6445 10.5639ZM32.6488 9.8608C32.8011 9.8608 32.9282 9.8182 33.0302 9.73295C33.1322 9.6463 33.209 9.5284 33.2607 9.37925C33.3139 9.2301 33.3405 9.06035 33.3405 8.87005C33.3405 8.6797 33.3139 8.50995 33.2607 8.3608C33.209 8.21165 33.1322 8.09375 33.0302 8.0071C32.9282 7.92045 32.8011 7.87715 32.6488 7.87715C32.4951 7.87715 32.3658 7.92045 32.261 8.0071C32.1576 8.09375 32.0793 8.21165 32.0261 8.3608C31.9744 8.50995 31.9485 8.6797 31.9485 8.87005C31.9485 9.06035 31.9744 9.2301 32.0261 9.37925C32.0793 9.5284 32.1576 9.6463 32.261 9.73295C32.3658 9.8182 32.4951 9.8608 32.6488 9.8608ZM35.7881 8.60795V10.5H34.8702V7.22725H35.745V7.8047H35.7838C35.857 7.61435 35.9798 7.4638 36.1523 7.353C36.3246 7.24075 36.5336 7.18465 36.7792 7.18465C37.0091 7.18465 37.2095 7.2344 37.3804 7.3338C37.5513 7.43325 37.6842 7.5753 37.779 7.75995C37.8738 7.9432 37.9212 8.16195 37.9212 8.4162V10.5H37.0033V8.5781C37.0047 8.37785 36.9531 8.2216 36.8482 8.1094C36.7433 7.99575 36.599 7.9389 36.4151 7.9389C36.2916 7.9389 36.1824 7.9652 36.0876 8.01775C35.9943 8.0703 35.921 8.147 35.8678 8.24785C35.8161 8.3473 35.7895 8.46735 35.7881 8.60795ZM39.4332 9.19175V9.1193C39.4346 8.87075 39.4569 8.6726 39.5 8.52485C39.5445 8.37715 39.6092 8.2578 39.6939 8.1669C39.7787 8.076 39.8806 7.9936 39.9999 7.91975C40.0889 7.86295 40.1686 7.804 40.239 7.7429C40.3094 7.6818 40.3654 7.61435 40.4071 7.5405C40.4487 7.4652 40.4696 7.3814 40.4696 7.28905C40.4696 7.19105 40.4459 7.1051 40.3984 7.03125C40.3511 6.9574 40.2872 6.90055 40.2067 6.8608C40.1277 6.821 40.0401 6.80115 39.9438 6.80115C39.8504 6.80115 39.7621 6.82175 39.6788 6.86295C39.5955 6.9027 39.5273 6.96235 39.4741 7.0419C39.421 7.12005 39.3923 7.21735 39.388 7.3338H38.5088C38.516 7.0497 38.585 6.81535 38.7157 6.6307C38.8464 6.4446 39.0195 6.3061 39.235 6.2152C39.4504 6.12285 39.6881 6.0767 39.9481 6.0767C40.234 6.0767 40.4868 6.1236 40.7066 6.21735C40.9264 6.30965 41.0987 6.4439 41.2237 6.62005C41.3486 6.79615 41.4111 7.0085 41.4111 7.2571C41.4111 7.4233 41.3831 7.571 41.3271 7.7003C41.2725 7.8281 41.1956 7.94175 41.0965 8.0412C40.9974 8.1392 40.8804 8.228 40.7453 8.30755C40.6319 8.3743 40.5385 8.4439 40.4652 8.51635C40.3934 8.5888 40.3396 8.6726 40.3036 8.76775C40.2692 8.86295 40.2512 8.9801 40.2498 9.1193V9.19175H39.4332ZM39.8598 10.5554C39.7162 10.5554 39.5933 10.5057 39.4914 10.4063C39.3908 10.3054 39.3412 10.1847 39.3427 10.0441C39.3412 9.90485 39.3908 9.7855 39.4914 9.6861C39.5933 9.58665 39.7162 9.53695 39.8598 9.53695C39.9963 9.53695 40.1162 9.58665 40.2196 9.6861C40.323 9.7855 40.3755 9.90485 40.3769 10.0441C40.3755 10.1378 40.3504 10.2237 40.3015 10.3019C40.2541 10.3786 40.1916 10.4404 40.114 10.4872C40.0365 10.5327 39.9517 10.5554 39.8598 10.5554Z" fill="black"/>
</g>
<path fill-rule="evenodd" clip-rule="evenodd" d="M3.11239 0.0910266C1.93413 0.340853 0.808415 1.28026 0.289479 2.44682C-0.142646 3.41803 -0.0867465 4.83389 0.428841 5.97753L0.784329 6.76611L1.31357 6.22153L1.84281 5.67694L1.63093 5.13209C1.00136 3.51306 2.00445 1.79714 3.7014 1.59039C4.25743 1.52253 4.48862 1.56573 5.05303 1.8426C5.42745 2.02642 5.89023 2.21369 6.08124 2.25889C6.4572 2.34795 6.44188 2.27651 6.48696 4.15068C6.50409 4.86199 6.4563 5.04237 6.11859 5.54229C5.4116 6.58878 4.12927 6.97843 2.96723 6.49998C2.41301 6.27189 2.36187 6.19369 2.60402 5.94453C2.72419 5.82087 2.71195 5.78549 2.54863 5.78549C2.4331 5.78549 2.04193 6.06885 1.67936 6.41503L1.02003 7.04456L2.24789 8.90004C3.52661 10.8323 3.86356 11.1686 4.28718 10.9354C4.63597 10.7432 7.53423 6.18057 7.78114 5.4348C8.78359 2.40733 6.18956 -0.561704 3.11239 0.0910266ZM5.33265 2.63542C5.12824 2.79804 4.94174 2.97696 4.91817 3.03302C4.85351 3.18623 4.39692 3.15349 3.61574 2.93958C3.10776 2.80055 2.86819 2.78717 2.74634 2.89121C2.47316 3.12447 2.54387 3.23156 3.22226 3.61153C3.57646 3.8098 3.86626 4.01192 3.86626 4.06056C3.86626 4.30826 3.2314 4.7113 2.78138 4.74907C2.1576 4.80142 2.0561 5.03283 2.56242 5.24859C2.77429 5.33885 3.01141 5.58165 3.0981 5.79689C3.29915 6.29641 3.60866 6.30449 3.60866 5.81027C3.60866 5.56932 3.7448 5.3032 3.99377 5.05788C4.20552 4.84913 4.40078 4.70374 4.42783 4.73489C4.45475 4.76604 4.59926 5.08014 4.74893 5.43282C5.14563 6.36758 5.33961 6.19157 5.3852 4.8555C5.41676 3.93226 5.46506 3.71782 5.67577 3.56594C5.98799 3.3409 6.35133 2.64244 6.24675 2.46829C6.11692 2.25213 5.72369 2.32409 5.33265 2.63542Z" fill="#FF8800"/>
<defs>
<clipPath id="clip0_0_1">
<rect width="45" height="10" fill="white" transform="translate(12 1)"/>
</clipPath>
</defs>
</svg>
